<svg xmlns="http://www.w3.org/2000/svg" xmlns:xlink="http://www.w3.org/1999/xlink" id="Layer_1" data-name="Layer 1" viewBox="0 0 400 400"><defs><style>.cls-1{fill:url(#linear-gradient)}.cls-2{fill:none}.cls-3{fill:url(#linear-gradient-2)}.cls-4{fill:url(#linear-gradient-3)}.cls-5{fill:url(#linear-gradient-4)}.cls-6{fill:url(#linear-gradient-5)}.cls-7{fill:url(#linear-gradient-6)}.cls-8{fill:url(#linear-gradient-7)}.cls-9{fill:url(#linear-gradient-8)}.cls-10{fill:url(#linear-gradient-9)}</style><linearGradient id="linear-gradient" x1="-384.5" x2="-368.54" y1="17.83" y2="27.41" gradientTransform="matrix(0.19, -1.64, 0.75, 0.09, 363.59, -290.15)" gradientUnits="userSpaceOnUse"><stop offset=".56" stop-color="#ff8100"/><stop offset="1" stop-color="#ffb200"/></linearGradient><linearGradient id="linear-gradient-2" x1="-510.68" x2="-461.5" y1="-156.53" y2="-126.97" gradientTransform="translate(401.08 -268.08) rotate(-72.48)" gradientUnits="userSpaceOnUse"><stop offset="0" stop-color="#ffc800"/><stop offset=".15" stop-color="#ffbf00"/><stop offset=".39" stop-color="#ffa600"/><stop offset=".5" stop-color="#ff9a00"/><stop offset=".73" stop-color="#f99100"/><stop offset="1" stop-color="#ee8100"/></linearGradient><linearGradient id="linear-gradient-3" x1="-557.57" x2="-623.85" y1="-199.36" y2="87.7" gradientTransform="translate(401.08 -268.08) rotate(-72.48)" gradientUnits="userSpaceOnUse"><stop offset="0" stop-color="#ffb200"/><stop offset=".26" stop-color="#ffa900"/><stop offset=".69" stop-color="#ff9000"/><stop offset=".91" stop-color="#ff8100"/></linearGradient><linearGradient id="linear-gradient-4" x1="-707.59" x2="-602.23" y1="30.66" y2="30.66" gradientTransform="translate(401.08 -268.08) rotate(-72.48)" gradientUnits="userSpaceOnUse"><stop offset="0" stop-color="#ff5200"/><stop offset=".29" stop-color="#ff8100"/><stop offset=".52" stop-color="#ff9a00"/><stop offset="1" stop-color="#ffb200"/></linearGradient><linearGradient id="linear-gradient-5" x1="-692.31" x2="-601.35" y1="-65.35" y2="-65.35" gradientTransform="translate(401.08 -268.08) rotate(-72.48)" gradientUnits="userSpaceOnUse"><stop offset="0" stop-color="#ff8100"/><stop offset="1" stop-color="#ffb200"/></linearGradient><linearGradient id="linear-gradient-6" x1="-399.5" x2="-488.25" y1="-68.09" y2="141.01" gradientTransform="translate(401.08 -268.08) rotate(-72.48)" gradientUnits="userSpaceOnUse"><stop offset="0" stop-color="#ffb200"/><stop offset="1" stop-color="#ff8100"/></linearGradient><linearGradient id="linear-gradient-7" x1="-421.4" x2="-465.72" y1="-62" y2="-120.59" gradientTransform="translate(401.08 -268.08) rotate(-72.48)" gradientUnits="userSpaceOnUse"><stop offset="0" stop-color="#ff8100"/><stop offset=".2" stop-color="#ff8a00"/><stop offset=".43" stop-color="#ff9a00"/><stop offset=".67" stop-color="#ffa300"/><stop offset="1" stop-color="#ffb700"/></linearGradient><linearGradient id="linear-gradient-8" x1="-520.35" x2="-508.55" y1="95.22" y2="137.87" xlink:href="#linear-gradient-5"/><linearGradient id="linear-gradient-9" x1="-425.51" x2="-448.87" y1="115.45" y2="21.78" xlink:href="#linear-gradient-5"/></defs><title>Artboard 10</title><path d="M338,371.79a60.12,60.12,0,0,1,3.67,6.08c2.09,3.94,4.25,8.33,5.06,9.07,1.56,1.44,1.19-5.39,1.9-7.19s1.67-2.21,1.56-3.91c-.09-1.52-3.58-2.08-4.49-3.26-14.66-18.81-74.87-79.18-72.54-99.89,0,0-5.59,5.07-1.57,12.88C271.63,285.57,313.85,340.92,338,371.79Z" class="cls-1"/><path d="M309.63,333.39l-1,0c-.1.28-.21.55-.32.82C308.77,333.9,309.2,333.64,309.63,333.39Z" class="cls-2"/><path d="M54,38.27s64.08,86.56,18,104c0,0,50.41,34.06,62.35,69.61,29.79,6.86,59.37,14.82,89.16,21.65C161.18,161.05,95.12,83.37,61.66,44,59,42.13,56.43,40.24,54,38.27Z" class="cls-3"/><path d="M128,249.55s-12.43,9-39.66,0c0,0-.7,24.15-31.89,13l-46.67-2.3c30.1,12,59.24,25.87,90.65,35.53,24.86,7.65,50.23,10.69,75.37,16.75,22.56,5.45,45.56,11.25,68.32,15.1,22.38,3.79,43.3,5,64.6,5.62.15-.33.28-.65.42-1-24.63-28.09-54.66-62.82-85.6-98.82-29.79-6.83-59.37-14.79-89.16-21.65C138.65,224.76,137.94,237.84,128,249.55Z" class="cls-4"/><path d="M296.1,340.79c-9.79,3.4-21.37,4.51-31.71,5.78-19.44,2.41-39.18,3.52-57.95,9.26-11.75,3.6-24,5.61-35.92,8.74,6.91,5.6,5.62,15.56-12.45,32.66,0,0,67.58,20.12,138.58-43.54,0,0,6-5.77,11.7-19.52C304.48,336.59,300.61,339.21,296.1,340.79Z" class="cls-5"/><path d="M175.75,312.63c-25.14-6.06-50.51-9.1-75.37-16.75C69,286.22,39.83,272.4,9.73,260.35L0,259.87s77,35.27,65.92,50.23c0,0,49.58,18.93,30.46,51.63,0,0,58.39-9.91,74.14,2.84,11.9-3.13,24.17-5.14,35.92-8.74,18.77-5.74,38.51-6.85,57.95-9.26,10.34-1.27,21.92-2.38,31.71-5.78,4.51-1.58,8.38-4.2,12.25-6.62.11-.27.22-.54.32-.82-21.3-.66-42.22-1.83-64.6-5.62C221.31,323.88,198.31,318.08,175.75,312.63Z" class="cls-6"/><path d="M312.46,317.87c.06-13.05-.08-25.95.27-38.91.58-20.84-.91-42-1.41-62.87-1-40.41,0-82.25-3.72-122.76-1.72-18.86-6.8-37.93-8-56.07-.71-10.41-1.47-21.56-2.87-32.58-.52-1.6-1.07-3.24-1.61-4.93,0,0,3.37,47.64-23.55,59.3,0,0,6.46,44.8-13.7,73.05,0,0-11.24,28.63-32.32,15.58.36,2.29.7,4.58,1,6.86,2,16.72.22,33.68,0,50.35-.15,10.27.87,21.45-.09,32,29.93,34.8,58.86,68.24,82.72,95.46,0-.06,0-.11.07-.18l1-.4c.22-.43.46-.86.68-1.29A80.71,80.71,0,0,0,312.46,317.87Z" class="cls-7"/><path d="M226.5,154.54c-.28-2.28-.62-4.57-1-6.86-4.27-2.64-8.93-6.94-14-13.58,0,0-22.07-57-60.28-73,0,0,14.13,36.51-15.34,16.58,0,0-42.73-11.88-74.25-33.7,34,40,101.57,119.49,164.71,192.92,1-10.55-.06-21.73.09-32C226.72,188.22,228.52,171.26,226.5,154.54Z" class="cls-8"/><path d="M325.44,303c-4.43,9.35-9.84,18.28-14.6,27.51l-.18,1.08c4.75-2,20-9,28.43-19.42C361.65,284.36,393.6,235.05,400,183.5c0,0-22.53,23.77-47.95,6.64-5.17,18.52-5.59,40-9.15,59.43A214.29,214.29,0,0,1,325.44,303Z" class="cls-9"/><path d="M296.7,4.68c1.4,11,2.16,22.17,2.87,32.58,1.23,18.14,6.31,37.21,8,56.07,3.68,40.51,2.75,82.35,3.72,122.76.5,20.82,2,42,1.41,62.87-.35,13-.21,25.86-.27,38.91a80.71,80.71,0,0,1-1.62,12.61c4.76-9.23,10.17-18.16,14.6-27.51a214.29,214.29,0,0,0,17.46-53.4c3.56-19.48,4-40.91,9.15-59.43-.81-.55-1.62-1.13-2.42-1.76,0,0,42.7-62.71,36.85-85.26,0,0-39.65,18.94-45.34-42.11C341.14,61,327.76,98.08,296.7,4.68Z" class="cls-10"/></svg>
